<svg xmlns="http://www.w3.org/2000/svg" version="1.1" xmlns:xlink="http://www.w3.org/1999/xlink" xmlns:svgjs="http://svgjs.com/svgjs" width="36" height="36"><svg width="36" height="36" viewBox="0 0 9.5250003 9.5250003" version="1.1" id="SvgjsSvg1005" inkscape:version="1.1.1 (eb90963e84, 2021-10-02)" sodipodi:docname="favicon.svg" xmlns:inkscape="http://www.inkscape.org/namespaces/inkscape" xmlns:sodipodi="http://sodipodi.sourceforge.net/DTD/sodipodi-0.dtd" xmlns="http://www.w3.org/2000/svg" xmlns:svg="http://www.w3.org/2000/svg">
  <sodipodi:namedview id="SvgjsSodipodi:namedview1004" pagecolor="#505050" bordercolor="#ffffff" borderopacity="1" inkscape:pageshadow="0" inkscape:pageopacity="0" inkscape:pagecheckerboard="1" inkscape:document-units="px" showgrid="false" units="px" height="36px" inkscape:zoom="5.1099327" inkscape:cx="26.516984" inkscape:cy="20.352519" inkscape:window-width="1280" inkscape:window-height="941" inkscape:window-x="0" inkscape:window-y="28" inkscape:window-maximized="1" inkscape:current-layer="layer1"></sodipodi:namedview>
  <defs id="SvgjsDefs1003"></defs>
  <g inkscape:label="Camada 1" inkscape:groupmode="layer" id="SvgjsG1002">
    <ellipse style="fill:#000080;stroke:#9999ff;stroke-width:0.425681;stroke-miterlimit:4;stroke-dasharray:none;stroke-opacity:1" id="SvgjsEllipse1001" cx="4.7625003" cy="4.7625003" rx="4.1982799" ry="4.4173827"></ellipse>
    <path id="SvgjsPath1000" style="font-style:normal;font-weight:normal;font-size:5.33722px;line-height:1.25;font-family:sans-serif;fill:#00ff00;fill-opacity:1;stroke:none;stroke-width:0.133431" d="M 0.59944663,1.365033 V 5.2562686 H 1.1255127 V 3.3979839 H 2.6685712 V 2.9551169 H 1.1255127 V 1.8084168 H 2.8354859 V 1.365033 Z M 4.1826906,2.2667868 c -0.156364,0 -0.3170904,0.017446 -0.4821412,0.052193 -0.1650508,0.03301 -0.3350882,0.083138 -0.5105631,0.1508952 V 2.913259 C 3.3359258,2.83334 3.4876712,2.7733846 3.6457724,2.733425 3.8038737,2.693465 3.9662929,2.67348 4.1330812,2.67348 c 0.2623437,0 0.4655797,0.060802 0.6097818,0.1824178 0.1459397,0.119879 0.2191081,0.2899164 0.2191081,0.5105631 v 0.047026 H 4.2896609 c -0.4360815,0 -0.7648229,0.083326 -0.9854698,0.2501138 -0.2189094,0.1667883 -0.3281453,0.4142264 -0.3281453,0.7425905 0,0.281455 0.087558,0.5068853 0.2630332,0.6754109 0.1772124,0.1667883 0.4153395,0.250114 0.7141681,0.250114 0.2362832,0 0.4361334,-0.041663 0.5994466,-0.1250569 C 4.7160073,5.1215277 4.8525164,4.990097 4.9619711,4.8128846 v 0.443384 H 5.4415284 V 3.5907371 c 0,-0.4447684 -0.1041572,-0.7763788 -0.3126423,-0.9952882 C 4.9204008,2.3765395 4.604873,2.2667868 4.1826906,2.2667868 Z m 1.9022095,0.07028 1.0945069,2.9192019 H 7.8310467 L 8.9255536,2.3370667 H 8.4175742 L 7.5054853,4.7870464 6.5933962,2.3370667 Z M 4.4849977,3.7886576 h 0.4769734 v 0.1069703 c 0,0.3127277 -0.080786,0.5635516 -0.2423623,0.7529256 C 4.55977,4.8361902 4.3467066,4.9301903 4.0808879,4.9301903 c -0.1928487,0 -0.3454405,-0.049281 -0.45837,-0.1483114 C 3.511326,4.681111 3.4556031,4.5454483 3.4556031,4.3751852 c 0,-0.2136971 0.074861,-0.3651129 0.2242757,-0.4537189 C 3.8292932,3.83286 4.0975628,3.7886576 4.4849977,3.7886576 Z M 1.5875,5.6856995 V 8.1124248 H 1.9161622 V 5.6856995 Z m 1.7538981,0.5622396 c -0.2839543,0 -0.5076237,0.085126 -0.6712767,0.2552817 -0.1625694,0.1701559 -0.2439128,0.4037724 -0.2439128,0.7007325 0,0.2926247 0.080877,0.5247916 0.2423626,0.697115 0.1614855,0.1723236 0.3795064,0.258899 0.6537068,0.258899 0.100793,0 0.195349,-0.00995 0.2842202,-0.029455 0.089955,-0.019508 0.176997,-0.048833 0.2604492,-0.08785 v -0.276469 c -0.084536,0.046603 -0.1696617,0.082093 -0.2552814,0.1059366 -0.084536,0.02276 -0.1701284,0.034106 -0.2568318,0.034106 -0.1939996,0 -0.3448733,-0.061499 -0.452169,-0.1839679 C 2.7953696,7.5987151 2.7419515,7.4261314 2.7419515,7.2039533 c 0,-0.2221783 0.053418,-0.3948123 0.1607137,-0.517281 0.1072957,-0.1235528 0.2581694,-0.1850017 0.452169,-0.1850017 0.086703,0 0.1722956,0.011813 0.2568318,0.035657 0.08562,0.02276 0.1707455,0.057266 0.2552814,0.1038696 V 6.3616274 C 3.7845789,6.3236946 3.6994535,6.2958192 3.611666,6.2773947 3.5238786,6.2578864 3.4335208,6.2479391 3.3413981,6.2479391 Z m 1.7513145,0 c -0.2611949,0 -0.4664697,0.084659 -0.6149497,0.2537315 -0.1473962,0.1690719 -0.2206582,0.4031551 -0.2206582,0.7022827 0,0.2980437 0.073262,0.5321269 0.2206582,0.7022825 0.14848,0.1690722 0.3537548,0.2537315 0.6149497,0.2537315 0.2601108,0 0.4644025,-0.084659 0.6128824,-0.2537315 C 5.8540749,7.7360802 5.9283205,7.501997 5.9283205,7.2039533 5.9283205,6.9048257 5.8540749,6.6707425 5.705595,6.5016706 5.5571151,6.3325984 5.3528234,6.2479391 5.0927126,6.2479391 Z m 2.2091674,0 c -0.1268039,0 -0.2388719,0.026942 -0.3364135,0.081132 -0.096458,0.05419 -0.1806506,0.1359998 -0.252181,0.245463 v -0.28267 H 6.4125286 V 8.1124248 H 6.7132855 V 7.0835473 c 0,-0.1777426 0.046837,-0.3182025 0.1400432,-0.421163 0.093206,-0.1029607 0.2204032,-0.1545127 0.3818887,-0.1545127 0.1343906,0 0.235112,0.043055 0.3023071,0.1286743 0.067196,0.08562 0.1007692,0.2147332 0.1007692,0.3870566 V 8.1124248 H 7.9375002 V 7.0137841 c 0,-0.2514407 -0.053418,-0.4415362 -0.1607137,-0.5705079 C 7.6694908,6.3132206 7.5110527,6.2479391 7.30188,6.2479391 Z M 5.0927126,6.5016706 c 0.1593178,0 0.2855817,0.063365 0.3787883,0.1901693 0.093206,0.1257202 0.1395262,0.2964381 0.1395262,0.5121134 0,0.2167592 -0.04632,0.3879435 -0.1395262,0.5136637 C 5.3782943,7.8433372 5.2520304,7.9062358 5.0927126,7.9062358 4.931227,7.9062361 4.8035134,7.8438037 4.7103068,7.7191672 4.6181842,7.593447 4.5723308,7.4217962 4.5723308,7.2039533 c 0,-0.2178431 0.04632,-0.3890274 0.1395265,-0.5136639 0.093206,-0.1257202 0.2204535,-0.1886188 0.3808553,-0.1886188 z"></path>
  </g>
</svg><style>@media (prefers-color-scheme: light) { :root { filter: none; } }
</style></svg>